<?xml version="1.0" standalone="no"?>
<!DOCTYPE svg PUBLIC "-//W3C//DTD SVG 20010904//EN"
 "http://www.w3.org/TR/2001/REC-SVG-20010904/DTD/svg10.dtd">
<svg version="1.0" xmlns="http://www.w3.org/2000/svg"
 width="338.000000pt" height="338.000000pt" viewBox="0 0 338.000000 338.000000"
 preserveAspectRatio="xMidYMid meet">
<metadata>
Created by potrace 1.11, written by Peter Selinger 2001-2013
</metadata>
<g transform="translate(0.000000,338.000000) scale(0.100000,-0.100000)"
fill="#000000" stroke="none">
<path d="M789 2508 c0 -13 -2 -32 -4 -43 -3 -11 -7 -40 -11 -65 -3 -25 -7 -54
-9 -65 -3 -21 -15 -108 -20 -160 -2 -16 -6 -48 -9 -70 -5 -43 -15 -161 -21
-265 -2 -36 -7 -108 -10 -160 -4 -52 -8 -106 -8 -120 l-2 -25 108 -3 109 -2
-6 102 c-3 57 -5 117 -6 133 -1 26 -3 27 -10 10 -9 -22 -9 -25 -15 140 -5 125
-15 313 -20 354 -2 20 -6 54 -9 76 -2 22 -8 73 -12 113 -6 61 -9 72 -25 72
-13 0 -19 -7 -20 -22z"/>
<path d="M1501 2525 c2 -5 -1 -41 -5 -80 -17 -161 -26 -251 -31 -305 -2 -25
-6 -63 -9 -85 -2 -22 -8 -69 -12 -105 -6 -50 -9 -59 -14 -40 -7 26 -15 18 -23
-25 -2 -11 -9 -19 -15 -17 -7 1 -12 -1 -13 -5 0 -5 -2 -17 -4 -28 -3 -11 -7
-58 -11 -105 -3 -47 -7 -103 -9 -125 -1 -22 -3 -48 -4 -57 -1 -15 -10 -18 -49
-18 l-48 0 0 43 c-2 116 -59 471 -65 401 0 -5 -2 -20 -4 -34 -6 -47 -19 -275
-19 -342 l-1 -68 -40 0 c-39 0 -41 2 -43 33 -2 17 -7 48 -12 67 -5 19 -12 67
-15 105 -9 103 -16 159 -21 164 -8 9 -14 -6 -18 -50 -4 -42 -11 -80 -22 -120
-3 -9 -13 -19 -22 -21 -18 -5 -22 -25 -26 -144 -1 -34 -4 -40 -19 -36 -16 4
-17 -2 -13 -65 3 -38 7 -92 10 -119 8 -78 17 -174 21 -237 2 -32 7 -82 11
-110 4 -29 7 -64 7 -80 -1 -26 16 -40 18 -14 0 6 6 48 13 92 12 73 14 77 21
47 7 -31 47 -64 60 -50 3 3 12 36 19 74 14 68 14 68 16 24 1 -25 3 -67 5 -95
2 -27 4 -71 4 -97 1 -57 17 -65 19 -10 1 21 6 62 12 91 5 29 7 58 3 65 -4 8
-3 8 5 1 7 -6 14 -37 17 -70 9 -96 14 -127 20 -133 3 -3 5 10 6 29 1 19 2 48
4 64 3 28 16 310 19 417 1 26 4 50 7 53 3 3 6 -1 6 -8 1 -35 14 -215 17 -237
3 -14 7 -54 11 -89 7 -76 18 -103 30 -75 4 11 9 24 11 29 4 13 33 189 40 235
2 19 6 49 9 65 7 46 18 147 19 178 l1 29 93 -1 c50 0 102 0 115 -1 21 0 22 -4
23 -98 2 -103 9 -246 19 -352 6 -61 21 -90 47 -90 17 0 36 65 43 145 4 44 8
91 10 105 2 14 7 44 10 68 3 24 10 53 15 65 8 20 9 19 10 -8 1 -16 3 -48 5
-70 2 -22 6 -107 9 -190 3 -82 10 -163 15 -180 10 -32 10 -32 17 30 3 23 9 54
13 70 9 29 9 29 11 -12 2 -24 4 -52 5 -63 1 -11 3 -40 4 -65 1 -29 5 -45 14
-45 7 0 13 8 13 18 1 9 4 94 8 187 10 220 14 311 15 360 2 50 16 30 25 -36 4
-25 9 -57 11 -70 2 -13 6 -53 9 -89 2 -36 10 -78 16 -95 7 -16 18 -50 25 -75
12 -44 13 -44 23 -20 5 14 13 55 17 90 8 74 11 93 21 123 4 12 8 40 9 62 2 22
6 85 10 140 l7 100 42 -2 c22 0 48 -2 56 -2 12 -1 15 -17 14 -81 -1 -99 9 -95
16 7 l5 76 45 1 c41 1 45 -1 47 -22 0 -13 10 -32 22 -43 12 -11 21 -27 21 -37
0 -9 12 -35 25 -56 19 -32 25 -37 31 -23 3 9 10 17 14 17 10 0 32 -112 36
-190 2 -36 6 -85 8 -110 3 -25 5 -56 6 -70 3 -54 19 14 19 84 1 71 14 85 17
18 6 -125 16 -257 20 -261 10 -10 17 12 20 61 1 29 5 105 9 168 11 179 12 212
14 259 2 68 12 43 33 -81 30 -176 30 -178 39 -178 5 0 12 -18 15 -41 9 -56 21
-32 30 61 4 41 13 84 20 95 12 19 27 171 28 287 1 55 2 58 26 59 50 2 152 0
156 -3 2 -2 6 -37 9 -78 3 -41 8 -91 10 -110 3 -19 7 -80 11 -135 6 -106 11
-145 17 -152 2 -2 12 8 21 22 10 15 23 74 32 143 9 64 17 131 20 147 2 17 7
60 10 98 7 64 8 67 33 67 14 0 31 4 36 8 11 8 11 10 1 147 -3 50 -8 162 -11
249 -4 164 -9 221 -25 291 -35 156 -58 219 -61 163 -1 -13 -3 -34 -4 -48 -2
-14 -6 -83 -9 -155 -6 -127 -12 -180 -24 -200 -11 -18 -26 -157 -31 -294 -2
-40 -9 -20 -16 44 -4 33 -8 71 -10 85 -5 31 -18 179 -19 202 -1 39 -15 0 -18
-49 -4 -61 -15 -57 -19 7 -1 25 -5 51 -7 58 -8 24 -22 12 -23 -20 -1 -34 -16
-90 -19 -73 -1 6 -3 28 -6 50 -7 71 -12 84 -34 78 -11 -3 -20 -8 -21 -12 -2
-10 -6 -58 -13 -151 -3 -47 -8 -96 -10 -110 -6 -30 -15 -90 -22 -143 -3 -21
-7 -46 -9 -55 -2 -9 -4 -29 -4 -44 -1 -26 -3 -26 -75 -30 -41 -2 -73 -1 -71 2
1 3 -1 14 -6 25 -8 19 -8 19 -15 -2 -5 -20 -13 -23 -55 -23 l-49 0 0 49 c0 27
-5 62 -11 78 -6 15 -13 44 -15 63 -3 19 -7 46 -9 60 -2 14 -7 79 -10 145 -7
145 -10 174 -19 182 -3 3 -6 -5 -7 -18 -1 -41 -10 -103 -15 -108 -3 -3 -9 1
-14 9 -6 10 -14 -4 -27 -48 -10 -34 -20 -62 -23 -62 -4 0 -12 27 -19 61 -20
100 -33 56 -42 -146 -1 -39 -2 -38 -10 14 -5 30 -16 62 -24 71 -8 9 -15 25
-15 36 -1 10 -9 34 -19 53 -20 37 -30 31 -37 -22 -2 -18 -6 -43 -9 -57 -3 -14
-8 -43 -10 -65 -8 -84 -22 -186 -30 -225 -2 -8 -4 -27 -4 -41 -1 -25 -4 -26
-61 -28 -54 -1 -60 0 -61 19 -1 11 -3 25 -4 30 -1 6 -3 19 -4 30 -3 48 -49 -3
-54 -59 -1 -18 -8 -21 -52 -21 l-51 0 -17 98 c-9 53 -19 141 -22 195 -7 110
-10 130 -23 153 -7 12 -11 2 -16 -37 -4 -30 -9 -63 -10 -74 -2 -11 -4 -36 -5
-55 l-2 -35 -15 27 c-8 16 -20 25 -28 22 -24 -9 -29 12 -41 146 -3 41 -8 86
-10 100 -12 91 -16 127 -20 178 -4 56 -10 115 -21 217 -3 28 -10 55 -16 60 -6
7 -9 7 -7 0z"/>
<path d="M69 2469 c-2 -7 -6 -41 -13 -124 -8 -90 -14 -156 -21 -230 -2 -27 -7
-85 -11 -130 -3 -44 -8 -96 -10 -115 -6 -52 -13 -400 -7 -367 3 22 10 27 34
28 16 0 64 1 107 2 l77 2 1 -42 c2 -81 6 -128 11 -110 8 31 23 18 24 -20 0
-21 2 -56 4 -78 4 -49 21 -334 24 -412 1 -26 5 -33 21 -33 12 0 20 7 21 18 0
9 2 28 4 42 2 14 6 63 9 110 6 103 15 200 21 220 2 8 7 48 10 88 4 39 10 84
15 100 7 22 8 16 9 -30 1 -32 7 -77 15 -100 13 -38 19 -87 31 -253 1 -22 3
-75 4 -117 1 -67 3 -78 19 -78 14 0 18 10 20 52 2 55 22 94 22 45 0 -15 4 -27
9 -27 11 0 19 58 26 185 12 201 17 237 30 224 4 -5 15 -77 30 -194 3 -27 8
-59 10 -70 2 -11 4 -29 4 -40 1 -25 18 -8 25 25 2 14 11 59 19 100 18 88 26
152 33 274 3 49 6 94 7 100 1 7 -24 12 -64 14 l-65 3 3 37 c2 27 0 33 -7 22
-5 -8 -10 -25 -10 -37 0 -42 -20 -23 -21 20 0 23 -4 51 -8 62 -7 16 -9 13 -16
-20 -5 -22 -9 -43 -10 -47 -2 -5 -3 -15 -4 -23 -1 -11 -14 -15 -54 -15 l-54 0
-2 58 c-4 108 -19 305 -26 343 -5 26 -34 79 -44 79 -28 0 -36 -56 -43 -298 -1
-33 -10 -35 -14 -4 -2 9 -6 76 -9 147 -8 179 -14 258 -20 264 -3 2 -6 -16 -7
-40 0 -24 -2 -55 -4 -69 -3 -31 -12 -176 -13 -209 -2 -49 -11 -12 -17 65 -8
108 -22 196 -32 203 -17 11 -30 47 -36 101 -3 30 -8 66 -11 80 -16 71 -27 130
-32 170 -5 40 -11 61 -14 49z"/>
<path d="M3205 1570 c-3 -11 -3 -24 0 -30 4 -6 -15 -10 -51 -10 l-56 0 5 -192
c7 -227 8 -236 24 -246 11 -7 21 -89 27 -222 1 -17 7 -26 22 -28 18 -3 21 3
22 35 1 21 4 61 6 88 3 28 8 88 11 135 7 86 24 133 26 72 1 -18 3 -36 4 -42 1
-5 3 -19 4 -30 0 -11 6 -20 12 -20 5 0 7 5 4 10 -3 6 -1 10 4 10 6 0 12 -12
13 -27 0 -16 2 -32 3 -38 1 -5 5 -45 9 -87 8 -75 25 -107 27 -50 1 31 6 71 14
127 3 22 8 63 11 90 2 28 9 73 15 100 6 28 13 110 16 183 l5 132 -76 0 c-74 0
-76 1 -76 24 0 32 -17 42 -25 16z"/>
<path d="M3372 1565 c0 -16 2 -22 5 -12 2 9 2 23 0 30 -3 6 -5 -1 -5 -18z"/>
</g>
</svg>
