<?xml version="1.0" standalone="no"?>
<!DOCTYPE svg PUBLIC "-//W3C//DTD SVG 20010904//EN"
 "http://www.w3.org/TR/2001/REC-SVG-20010904/DTD/svg10.dtd">
<svg version="1.0" xmlns="http://www.w3.org/2000/svg"
 width="713.000000pt" height="713.000000pt" viewBox="0 0 713.000000 713.000000"
 preserveAspectRatio="xMidYMid meet">
<metadata>
Created by potrace 1.11, written by Peter Selinger 2001-2013
</metadata>
<g transform="translate(0.000000,713.000000) scale(0.100000,-0.100000)"
fill="#000000" stroke="none">
<path d="M2060 6535 c-438 -70 -718 -409 -780 -947 -16 -136 -8 -494 15 -638
40 -260 99 -494 191 -761 147 -428 384 -909 640 -1302 46 -70 84 -132 84 -136
0 -5 -68 -93 -150 -196 -83 -103 -149 -190 -147 -192 2 -2 101 41 220 96 l216
99 88 -116 c623 -822 1385 -1428 2048 -1631 180 -54 255 -66 440 -66 185 0
256 12 386 66 181 74 345 232 443 427 37 74 84 219 107 331 26 124 36 456 20
623 -69 707 -411 1563 -932 2334 l-116 172 124 158 c188 240 180 221 71 170
-51 -24 -146 -69 -210 -99 l-117 -55 -39 51 c-236 313 -609 696 -927 953 -610
492 -1218 731 -1675 659z m432 -94 c531 -107 1208 -553 1765 -1163 799 -873
1357 -1934 1519 -2888 35 -209 45 -557 20 -728 -55 -371 -216 -632 -469 -756
-131 -64 -187 -77 -367 -83 -139 -4 -168 -2 -280 21 -483 98 -1030 428 -1554
936 -1266 1228 -2040 3095 -1701 4107 105 314 324 509 638 569 94 18 301 11
429 -15z"/>
<path d="M1750 5205 l0 -285 90 0 90 0 0 115 0 115 95 0 95 0 0 -115 0 -115
90 0 90 0 0 285 0 285 -90 0 -90 0 0 -100 0 -100 -95 0 -95 0 0 100 0 100 -90
0 -90 0 0 -285z"/>
<path d="M2410 5205 l0 -285 245 0 245 0 0 65 0 65 -150 0 -150 0 0 55 0 55
135 0 135 0 0 65 0 65 -135 0 -135 0 0 35 0 35 145 0 145 0 0 65 0 65 -240 0
-240 0 0 -285z"/>
<path d="M3040 5328 l110 -161 0 -124 0 -123 95 0 95 0 0 118 0 117 110 165
110 165 -92 3 c-50 1 -97 1 -103 -2 -7 -2 -33 -41 -59 -85 -27 -45 -51 -83
-55 -85 -4 -3 -31 35 -60 85 l-53 89 -104 0 -104 0 110 -162z"/>
<path d="M2380 3855 l0 -285 163 0 c89 0 178 5 198 10 55 16 100 50 133 104
27 42 31 59 34 141 6 125 -14 191 -72 250 -26 25 -60 48 -82 54 -22 6 -114 11
-206 11 l-168 0 0 -285z m305 131 c54 -36 59 -212 7 -259 -10 -9 -44 -19 -75
-23 l-57 -7 0 158 0 158 51 -6 c28 -4 62 -13 74 -21z"/>
<path d="M3000 3855 l0 -285 245 0 245 0 0 65 0 65 -155 0 -155 0 0 55 0 55
140 0 140 0 0 65 0 65 -140 0 -140 0 0 35 0 35 150 0 150 0 0 65 0 65 -240 0
-240 0 0 -285z"/>
<path d="M3580 3855 l0 -285 90 0 90 0 0 110 c0 63 4 110 10 110 34 0 62 -30
112 -121 l53 -99 107 0 107 0 -43 83 c-24 45 -60 100 -81 122 -20 22 -31 41
-25 43 22 8 71 55 85 83 21 39 19 117 -3 159 -12 22 -35 44 -62 58 -42 21 -57
22 -242 22 l-198 0 0 -285z m289 149 c35 -7 55 -35 46 -64 -7 -22 -60 -40
-117 -40 l-38 0 0 55 0 55 39 0 c21 0 53 -3 70 -6z"/>
<path d="M4200 3855 l0 -285 245 0 245 0 0 65 0 65 -155 0 -155 0 0 55 0 55
140 0 140 0 0 65 0 65 -140 0 -140 0 0 35 0 35 150 0 150 0 0 65 0 65 -240 0
-240 0 0 -285z"/>
<path d="M3400 2345 l0 -285 188 0 c197 0 252 8 290 43 77 71 67 212 -17 247
l-30 12 33 33 c51 51 56 117 15 176 -37 52 -69 59 -283 59 l-196 0 0 -285z
m294 145 c19 -7 26 -17 26 -35 0 -31 -30 -45 -96 -45 l-44 0 0 45 0 45 44 0
c25 0 56 -4 70 -10z m43 -216 c7 -10 13 -23 13 -29 0 -33 -28 -47 -98 -53
l-72 -5 0 58 0 58 72 -5 c53 -4 75 -10 85 -24z"/>
<path d="M4022 2418 c3 -212 3 -213 31 -260 18 -31 44 -57 74 -75 41 -24 61
-28 146 -31 126 -5 178 9 232 62 58 59 65 92 65 320 l0 196 -89 0 -90 0 -3
-199 c-3 -175 -5 -201 -21 -219 -43 -47 -135 -30 -156 28 -6 20 -11 104 -11
211 l0 179 -91 0 -90 0 3 -212z"/>
<path d="M4680 2344 l0 -285 213 3 c191 3 215 5 246 23 51 30 74 67 78 127 5
61 -18 108 -66 136 l-29 16 34 38 c28 32 34 46 34 84 0 58 -25 101 -72 125
-33 17 -60 19 -238 19 l-200 0 0 -286z m304 146 c19 -7 26 -17 26 -35 0 -31
-30 -45 -96 -45 l-44 0 0 45 0 45 44 0 c25 0 56 -4 70 -10z m14 -201 c37 -13
46 -42 22 -71 -14 -18 -31 -23 -84 -26 l-66 -4 0 56 0 56 49 0 c26 0 62 -5 79
-11z"/>
<path d="M5291 2578 c0 -29 8 -116 17 -193 l18 -140 57 -3 c31 -2 57 1 57 5 0
4 7 55 15 113 8 58 15 142 15 188 l0 82 -90 0 -90 0 1 -52z"/>
<path d="M5300 2130 l0 -70 85 0 85 0 0 70 0 70 -85 0 -85 0 0 -70z"/>
<path d="M5514 6065 c-321 -74 -554 -345 -571 -666 -3 -53 -3 -112 1 -131 l6
-34 343 52 c188 28 343 51 345 49 1 -1 -72 -136 -163 -300 -91 -164 -165 -302
-165 -307 0 -4 17 -16 38 -27 124 -63 325 -88 463 -57 261 58 462 239 546 491
24 71 27 96 27 220 1 132 -1 145 -31 228 -43 122 -85 189 -178 282 -93 93
-161 136 -282 178 -74 25 -106 30 -203 33 -74 2 -137 -2 -176 -11z"/>
<path d="M1235 2575 c-250 -54 -455 -239 -542 -490 -25 -73 -27 -93 -27 -220
0 -127 2 -147 27 -220 41 -116 99 -209 186 -295 89 -87 174 -140 286 -177 71
-24 95 -27 220 -27 125 0 149 3 220 27 116 38 199 91 290 182 92 92 144 176
182 290 23 70 27 97 27 215 1 114 -3 146 -22 208 -12 39 -26 72 -30 72 -4 0
-152 -58 -329 -129 l-321 -128 19 66 c111 383 169 605 162 611 -29 29 -244 38
-348 15z"/>
</g>
</svg>
