<?xml version="1.0" standalone="no"?>
<!DOCTYPE svg PUBLIC "-//W3C//DTD SVG 20010904//EN"
 "http://www.w3.org/TR/2001/REC-SVG-20010904/DTD/svg10.dtd">
<svg version="1.0" xmlns="http://www.w3.org/2000/svg"
 width="571.000000pt" height="571.000000pt" viewBox="0 0 571.000000 571.000000"
 preserveAspectRatio="xMidYMid meet">
<metadata>
Created by potrace 1.11, written by Peter Selinger 2001-2013
</metadata>
<g transform="translate(0.000000,571.000000) scale(0.100000,-0.100000)"
fill="#000000" stroke="none">
<path d="M802 3713 c-5 -10 -15 -56 -22 -103 -17 -115 -19 -127 -26 -189 -3
-30 -8 -64 -10 -75 -2 -12 -6 -50 -9 -86 -3 -36 -8 -87 -10 -115 -6 -60 -12
-145 -20 -286 -4 -58 -8 -115 -10 -125 -2 -10 -4 -22 -4 -26 -1 -5 -26 -8 -56
-8 l-55 0 0 38 c-1 31 -2 34 -11 19 -6 -10 -9 -27 -6 -38 3 -12 0 -19 -9 -19
-10 0 -14 14 -14 49 0 28 -4 52 -9 55 -10 6 -25 -42 -30 -91 -1 -9 -18 -13
-50 -13 -60 0 -59 -4 -65 155 -3 66 -8 138 -11 160 -3 22 -7 54 -8 70 -4 34
-33 95 -46 95 -28 0 -37 -60 -43 -298 -1 -32 -10 -35 -14 -4 -2 9 -6 71 -9
137 -11 230 -14 267 -19 273 -3 3 -7 -10 -7 -29 -1 -19 -3 -45 -4 -59 -1 -14
-5 -76 -9 -139 -6 -107 -15 -161 -17 -95 -2 117 -24 261 -43 280 -9 8 -16 18
-17 22 0 4 -2 15 -4 24 -2 9 -6 34 -9 55 -3 21 -12 70 -20 108 -8 39 -17 93
-21 120 -6 52 -26 89 -24 45 1 -14 -1 -61 -5 -105 -4 -44 -9 -105 -12 -135 -2
-30 -7 -75 -9 -100 -3 -24 -7 -80 -11 -125 -3 -44 -8 -96 -10 -115 -6 -52 -13
-400 -7 -367 3 19 10 27 26 28 42 1 180 -1 183 -4 3 -3 13 -89 14 -127 1 -27
3 -31 9 -16 16 41 22 -4 36 -265 12 -212 14 -246 20 -281 7 -37 24 -62 26 -36
0 7 2 22 5 33 6 33 15 115 19 190 4 77 13 169 19 200 2 11 7 52 10 90 7 74 15
128 20 132 1 2 3 -23 4 -54 2 -65 6 -93 20 -120 12 -23 28 -221 36 -456 2 -48
6 -90 10 -94 3 -3 6 5 7 18 0 13 2 33 4 44 5 28 13 115 14 148 1 31 21 28 21
-4 0 -24 20 -25 21 -1 1 9 3 26 4 37 3 25 17 219 21 300 3 75 2 71 13 60 10
-10 15 -34 25 -117 10 -81 17 -132 21 -153 2 -11 4 -29 4 -40 1 -25 18 -8 25
25 2 14 11 57 19 95 8 39 15 77 15 85 0 8 3 31 6 50 7 40 18 191 16 233 0 30
0 30 143 27 l68 -1 -5 108 c-3 59 -5 118 -5 131 -1 13 -5 20 -11 17 -11 -7
-11 -13 -15 125 -3 114 -14 304 -20 360 -3 19 -7 60 -10 90 -12 122 -22 191
-29 197 -2 3 -9 -4 -14 -14z"/>
<path d="M1507 3693 c-4 -7 -12 -77 -22 -193 -2 -19 -6 -55 -9 -80 -3 -25 -8
-76 -11 -115 -4 -38 -8 -81 -10 -95 -2 -14 -7 -54 -10 -90 -7 -68 -15 -93 -15
-46 0 35 -16 26 -24 -14 -3 -18 -10 -29 -16 -25 -5 3 -10 3 -11 -2 0 -4 -2
-17 -4 -28 -4 -21 -17 -170 -20 -245 -2 -25 -3 -48 -4 -52 0 -3 -22 -8 -48
-10 l-48 -3 -1 40 c-1 69 -14 180 -29 262 -8 43 -16 93 -17 111 -2 33 -17 55
-19 30 -1 -7 -3 -24 -5 -38 -6 -49 -18 -266 -18 -332 l0 -68 -41 0 c-34 0 -41
3 -42 21 -1 11 -7 44 -12 72 -6 29 -13 79 -16 112 -11 123 -16 160 -26 170 -5
5 -9 0 -10 -15 -1 -32 -4 -55 -13 -105 -11 -63 -15 -73 -34 -77 -18 -5 -21
-20 -27 -123 -3 -55 -3 -55 -21 -55 -15 0 -15 -50 1 -195 6 -46 14 -141 20
-235 5 -67 13 -140 20 -175 2 -11 4 -26 4 -34 2 -27 10 -6 16 41 4 25 10 68
14 95 l8 48 8 -33 c7 -31 48 -62 63 -47 3 3 11 35 18 72 12 67 12 67 14 23 1
-25 4 -67 5 -95 2 -27 3 -71 4 -97 1 -27 5 -48 9 -48 5 0 9 21 11 48 1 26 6
66 12 90 5 24 6 49 3 55 -5 8 -4 9 4 2 7 -6 14 -42 17 -80 3 -39 9 -83 14
-100 l9 -30 2 30 c1 17 3 48 5 70 3 54 18 358 19 417 1 26 4 49 7 52 3 3 6 0
6 -7 1 -79 23 -304 37 -392 7 -46 27 -11 41 70 3 17 8 44 12 60 3 17 7 40 9
52 1 13 5 40 8 60 14 81 30 227 29 261 -1 15 5 22 18 22 10 1 62 1 115 1 l96
1 3 -114 c3 -103 7 -161 21 -343 4 -56 20 -85 46 -85 20 0 33 45 44 152 4 40
8 82 9 93 11 113 33 191 36 130 5 -91 8 -163 13 -280 5 -129 10 -173 21 -183
3 -3 6 1 6 9 3 32 8 66 17 104 l10 40 2 -40 c9 -165 18 -266 25 -273 3 -3 5
10 6 29 0 19 2 45 4 59 1 14 6 108 10 210 4 102 8 217 10 255 2 39 3 87 4 108
1 21 5 36 9 33 8 -4 24 -113 36 -242 4 -42 43 -172 56 -187 6 -7 13 26 34 173
3 19 8 46 11 60 11 48 13 66 20 175 4 60 7 111 8 112 6 6 88 9 96 4 6 -4 12
-41 13 -83 2 -43 7 -73 11 -69 5 5 7 41 5 80 -3 65 -1 71 17 72 11 0 34 1 50
2 25 2 30 -2 32 -21 0 -13 10 -32 22 -43 12 -11 21 -27 21 -37 0 -9 11 -35 24
-57 20 -33 26 -37 31 -22 4 9 10 17 14 17 11 0 32 -114 38 -206 2 -46 6 -92 8
-102 2 -9 4 -32 4 -49 1 -18 5 -33 10 -33 5 0 9 6 8 13 -2 59 4 159 10 153 4
-3 8 -12 9 -19 2 -17 16 -273 18 -324 1 -47 16 -60 17 -15 3 102 18 387 24
457 2 17 3 52 4 79 1 49 12 56 18 13 23 -156 46 -261 58 -273 8 -9 15 -26 15
-40 0 -13 4 -24 8 -24 4 0 13 41 18 91 6 50 16 94 21 97 10 7 27 171 32 317 1
30 2 30 54 28 28 0 68 -2 89 -2 l36 -1 7 -82 c4 -46 9 -99 11 -118 1 -19 6
-75 9 -125 3 -49 8 -106 11 -125 l6 -34 19 24 c21 29 24 43 45 220 2 19 6 49
8 65 6 38 19 146 19 163 0 6 10 13 21 13 52 3 51 2 49 59 -1 30 -4 78 -7 105
-3 28 -8 131 -10 230 -5 174 -11 253 -22 285 -3 8 -8 26 -10 40 -7 43 -37 145
-46 154 -5 6 -8 2 -9 -10 -1 -10 -2 -32 -4 -49 -2 -16 -6 -86 -9 -155 -8 -149
-12 -183 -25 -208 -5 -10 -13 -61 -17 -113 -4 -52 -8 -105 -9 -119 -2 -14 -3
-38 -4 -54 -2 -49 -9 -25 -16 49 -3 39 -8 77 -10 85 -5 20 -18 160 -17 183 0
9 -3 17 -9 17 -8 0 -12 -27 -12 -82 0 -36 -17 -17 -18 20 -1 20 -2 42 -4 47
-1 6 -3 16 -3 23 -4 29 -22 9 -23 -25 0 -41 -16 -90 -19 -63 -2 8 -2 18 -1 22
2 16 -21 108 -27 108 -21 -1 -35 -22 -37 -56 -15 -199 -18 -223 -40 -352 -7
-40 -12 -89 -11 -110 l1 -37 -77 3 c-70 3 -77 6 -81 25 l-4 22 -8 -22 c-6 -20
-14 -23 -54 -23 l-47 0 -3 48 c-1 26 -8 70 -16 97 -20 74 -35 227 -37 388 -1
62 -15 48 -23 -23 -7 -57 -14 -75 -23 -52 -5 16 -42 -61 -42 -89 0 -25 -20
-24 -21 1 -1 11 -2 23 -3 28 -1 4 -6 22 -10 40 -16 69 -29 8 -37 -183 -1 -36
-2 -34 -10 19 -5 32 -15 67 -24 76 -8 9 -15 25 -15 36 -1 26 -36 89 -43 77 -3
-5 -8 -23 -11 -39 -3 -16 -8 -40 -11 -54 -3 -14 -7 -47 -10 -75 -9 -84 -15
-129 -19 -150 -8 -43 -20 -130 -18 -138 1 -4 -26 -7 -60 -6 l-63 2 1 31 c2 80
-27 89 -51 16 l-17 -50 -47 0 -46 0 -14 68 c-16 82 -18 103 -25 215 -11 168
-28 215 -41 115 -9 -62 -13 -105 -14 -132 -1 -17 -16 -15 -16 2 -1 16 -17 31
-29 26 -8 -3 -18 0 -22 7 -9 15 -9 18 -19 142 -3 48 -8 98 -11 110 -8 42 -14
93 -19 167 -3 41 -8 91 -10 110 -5 39 -16 138 -17 158 -1 14 -5 15 -11 5z"/>
<path d="M3479 3583 c-1 -7 -2 -16 -3 -20 -1 -5 -6 -24 -10 -43 -5 -19 -14
-42 -22 -51 -7 -8 -16 -44 -19 -80 -3 -35 -8 -86 -10 -114 -4 -43 -10 -124
-20 -265 -7 -100 -18 -228 -20 -250 -2 -14 -4 -33 -4 -42 -1 -15 -11 -18 -66
-18 -50 0 -67 4 -70 15 -16 49 -18 50 -28 18 -9 -31 -12 -33 -58 -33 l-49 0
-1 -47 c-3 -181 9 -364 26 -389 17 -27 24 -90 30 -284 5 -152 9 -197 20 -208
3 -3 5 10 6 29 0 19 2 41 4 49 1 8 6 68 9 134 4 65 9 137 11 160 2 22 7 75 10
116 4 41 7 83 7 93 -1 19 14 24 15 5 2 -29 16 -103 20 -108 2 -2 8 2 13 10 8
12 10 9 11 -10 0 -14 2 -34 4 -45 2 -11 6 -44 8 -73 2 -29 7 -55 10 -58 3 -3
3 -12 0 -20 -3 -8 0 -14 6 -14 6 0 11 6 12 13 2 41 20 211 24 227 2 8 7 42 11
75 3 33 8 63 10 67 5 7 11 100 15 216 1 29 6 55 12 59 5 3 29 6 53 7 l44 1 1
-45 c1 -74 10 -144 20 -155 6 -5 9 -2 10 10 0 11 3 43 5 70 3 28 6 65 7 83 0
24 5 32 19 32 13 0 18 -8 19 -27 0 -16 2 -35 4 -43 1 -9 6 -47 9 -85 10 -102
14 -134 26 -223 6 -43 13 -108 15 -143 7 -101 14 -150 26 -187 17 -51 28 -22
34 90 3 51 7 104 10 118 2 14 7 57 10 95 3 39 8 86 11 105 7 49 16 174 18 242
1 46 4 58 17 58 8 0 16 -8 16 -17 -1 -72 4 -107 13 -93 18 29 23 2 35 -190 5
-91 16 -237 19 -257 3 -16 16 -29 17 -17 2 14 6 61 13 149 4 44 9 89 11 100 2
11 4 31 4 44 1 31 10 22 17 -15 9 -58 15 -75 24 -69 12 8 30 -28 30 -62 0 -34
19 -65 27 -45 3 7 13 21 23 30 10 9 21 37 25 61 7 45 10 73 20 250 3 57 7 109
8 115 1 7 -25 12 -75 14 l-78 3 -1 57 c-1 65 -5 112 -14 160 -8 43 -24 31 -56
-43 -26 -59 -34 -66 -44 -36 -3 11 -12 21 -19 24 -10 4 -14 32 -16 99 -1 51
-4 140 -6 198 -1 58 -3 123 -4 145 -1 54 -16 27 -25 -45 -9 -76 -15 -96 -25
-80 -12 19 -29 3 -36 -35 -7 -41 -19 -52 -32 -29 -12 22 -20 -18 -28 -146 -3
-52 -7 -111 -9 -130 -2 -19 -4 -48 -5 -65 -1 -48 -17 -9 -24 60 -3 33 -8 76
-10 95 -11 87 -26 281 -31 404 -6 137 -15 228 -26 246 -6 10 -9 11 -10 3z"/>
<path d="M4149 3423 c0 -16 -2 -35 -4 -43 -1 -8 -6 -53 -9 -100 -4 -46 -9 -87
-11 -90 -2 -3 -4 -25 -6 -50 -1 -25 -8 -52 -15 -60 -6 -8 -15 -37 -19 -64 -5
-35 -9 -45 -16 -35 -7 11 -9 11 -9 -3 0 -10 8 -18 18 -19 14 0 15 -1 1 -7 -15
-7 -17 -17 -24 -179 l-4 -72 106 -3 105 -3 3 -55 c7 -111 16 -216 20 -255 2
-22 7 -67 10 -100 11 -117 22 -140 46 -94 9 19 25 34 35 34 11 0 21 12 26 30
18 59 21 60 33 10 12 -49 12 -50 23 -23 6 15 12 52 14 83 3 61 17 76 19 20 3
-63 4 -73 12 -81 4 -4 7 8 8 27 1 19 3 48 5 64 5 46 17 233 18 292 1 35 5 53
14 53 6 0 12 -11 12 -24 0 -14 4 -27 9 -31 10 -5 16 -43 25 -145 5 -55 15
-149 21 -205 2 -16 6 -60 10 -98 7 -67 24 -101 26 -53 1 14 3 31 4 36 1 6 3
17 4 26 1 13 4 14 16 4 12 -10 15 -9 16 6 0 11 2 28 5 39 2 11 6 94 9 185 4
91 8 185 9 210 l3 45 56 3 c60 3 63 1 57 -53 -1 -11 1 -17 6 -12 6 6 10 23 13
62 1 11 89 11 99 -1 4 -4 -2 -4 -12 0 -15 5 -17 4 -8 -7 7 -7 14 -31 17 -53 8
-49 12 -74 25 -146 6 -32 13 -70 16 -85 3 -16 14 -48 25 -72 10 -24 19 -50 19
-57 0 -8 4 -14 9 -14 12 0 31 87 32 148 1 26 4 58 9 72 l7 25 6 -25 c13 -56
16 -78 22 -140 8 -87 14 -112 25 -105 6 4 10 -17 11 -52 1 -32 3 -85 4 -118 2
-33 3 -71 4 -84 2 -54 12 -8 16 80 6 119 14 227 20 259 2 14 7 50 11 80 3 30
7 57 9 60 2 3 6 27 9 53 4 27 15 65 26 84 18 34 19 35 25 12 3 -13 7 -42 9
-64 3 -22 5 -42 5 -45 3 -14 21 28 21 49 0 13 3 21 7 17 8 -8 10 -22 18 -203
3 -72 10 -144 15 -160 l8 -28 2 35 c1 19 3 58 4 85 2 28 6 102 10 165 4 63 9
132 12 152 5 34 8 37 25 28 17 -10 19 -7 19 23 0 40 5 46 30 40 15 -4 19 -14
19 -52 0 -25 4 -57 10 -71 9 -23 10 -21 12 20 1 25 3 50 4 55 2 6 3 18 4 28 1
13 10 17 39 17 35 0 37 -1 36 -32 -2 -102 30 -281 56 -311 4 -5 11 13 14 40 4
26 10 63 13 82 2 18 13 61 24 94 17 54 19 92 19 390 0 182 -2 328 -4 326 -2
-2 -7 -53 -10 -114 -4 -60 -8 -118 -9 -127 -4 -26 -17 -34 -18 -12 0 10 -3 28
-5 39 -3 11 -5 35 -5 54 0 20 -3 31 -8 25 -8 -9 -14 -51 -27 -189 -4 -33 -12
-67 -20 -76 -8 -8 -14 -23 -14 -32 0 -29 -20 -19 -21 11 0 15 -2 36 -5 47 -2
11 -6 39 -8 63 -3 23 -9 48 -13 55 -9 14 -11 24 -17 97 -5 54 -12 100 -21 130
-2 8 -7 38 -11 65 -5 46 -20 83 -21 53 0 -23 -13 -171 -19 -213 -4 -33 -10
-100 -13 -139 -1 -6 -8 -1 -16 10 -8 10 -15 16 -15 11 0 -4 -6 -49 -14 -100
-8 -50 -18 -114 -21 -142 -3 -27 -8 -59 -10 -70 -2 -11 -4 -23 -4 -27 -1 -5
-14 -8 -30 -8 -25 0 -30 5 -36 38 l-8 37 -10 -37 c-11 -46 -19 -48 -35 -5 -12
31 -13 31 -27 13 -13 -17 -13 -22 3 -40 11 -13 12 -17 2 -11 -8 5 -35 8 -60 6
-25 -2 -42 0 -39 3 6 6 -8 88 -35 211 -9 38 -16 97 -17 130 0 70 -15 156 -19
115 -3 -25 -6 -40 -10 -50 -2 -6 -6 -50 -11 -122 -4 -59 -18 -63 -21 -5 0 23
-2 47 -3 52 -2 6 -3 23 -4 39 -1 30 -14 29 -16 -2 -9 -97 -17 -178 -20 -191
-1 -9 -5 -41 -9 -71 -9 -69 -25 -101 -27 -50 -1 56 -5 87 -24 225 -14 97 -18
122 -26 135 -7 12 -10 11 -15 -7 -3 -13 -9 -23 -13 -23 -4 0 -8 10 -8 23 -3
38 -13 67 -23 67 -6 0 -10 -11 -10 -25 0 -17 -4 -23 -15 -19 -10 4 -13 0 -10
-17 2 -12 1 -29 -4 -37 -6 -11 -11 -4 -16 26 -6 39 -21 58 -22 30 0 -7 -3 -35
-6 -63 -7 -54 -18 -217 -22 -305 -1 -30 -3 -58 -4 -62 0 -5 -27 -8 -58 -8
l-58 0 1 53 c1 79 -23 349 -40 454 -6 35 -15 18 -21 -39 -3 -35 -8 -81 -10
-103 -8 -79 -19 -261 -20 -315 l0 -55 -40 3 c-37 3 -40 6 -41 35 0 18 -3 93
-8 167 -4 74 -9 178 -12 230 -9 173 -12 212 -18 217 -3 4 -7 -1 -7 -10 -1 -9
-3 -21 -4 -27 -1 -5 -3 -26 -4 -45 -1 -25 -5 -33 -15 -29 -20 8 -27 -47 -41
-321 -2 -44 -9 -107 -15 -140 -5 -33 -10 -63 -10 -67 0 -13 -17 -9 -18 5 -1 6
-6 39 -11 72 -6 33 -13 105 -16 160 -9 169 -17 224 -44 334 -11 42 -23 97 -26
124 -8 51 -25 64 -26 20z"/>
</g>
</svg>
