<?xml version="1.0" standalone="no"?>
<!DOCTYPE svg PUBLIC "-//W3C//DTD SVG 20010904//EN"
 "http://www.w3.org/TR/2001/REC-SVG-20010904/DTD/svg10.dtd">
<svg version="1.0" xmlns="http://www.w3.org/2000/svg"
 width="1510.000000pt" height="1510.000000pt" viewBox="0 0 1510.000000 1510.000000"
 preserveAspectRatio="xMidYMid meet">
<metadata>
Created by potrace 1.11, written by Peter Selinger 2001-2013
</metadata>
<g transform="translate(0.000000,1510.000000) scale(0.100000,-0.100000)"
fill="#000000" stroke="none">
<path d="M0 7550 l0 -7550 7550 0 7550 0 0 7550 0 7550 -7550 0 -7550 0 0
-7550z m14990 -15 l0 -7445 -7450 0 -7450 0 0 7445 0 7445 7450 0 7450 0 0
-7445z"/>
<path d="M130 7535 l0 -7405 7410 0 7410 0 0 7405 0 7405 -7410 0 -7410 0 0
-7405z m14770 0 l0 -7365 -7362 2 -7363 3 -3 7363 -2 7362 7365 0 7365 0 0
-7365z"/>
<path d="M4860 9425 l0 -3745 2704 0 c2456 0 2704 1 2710 16 3 9 6 730 7 1602
1 873 4 1577 7 1564 13 -46 27 -25 40 58 7 47 19 126 27 175 8 50 17 137 20
195 9 166 -7 150 149 149 l134 -2 7 -33 c5 -31 25 -58 25 -35 0 21 19 11 23
-11 2 -13 4 -6 3 14 -1 34 -2 35 -19 21 -20 -19 -22 -6 -2 21 10 14 23 17 54
14 l41 -4 0 51 c0 28 -9 82 -20 121 -21 77 -40 274 -40 415 0 129 -18 118 -32
-21 -2 -17 -9 -25 -20 -24 -15 2 -34 -35 -54 -103 -6 -21 -24 -15 -24 8 0 39
-22 111 -32 101 -5 -5 -12 -59 -15 -121 -6 -114 -16 -142 -26 -70 -3 22 -12
48 -21 58 -9 10 -16 27 -16 39 0 26 -39 104 -49 97 -10 -5 -24 -88 -57 -337
l-27 -198 -38 0 -39 0 0 1859 c0 1686 -1 1859 -16 1865 -9 3 -1228 6 -2710 6
l-2694 0 0 -3745z m5230 5 l0 -3560 -2525 0 -2525 0 0 3560 0 3560 2525 0
2525 0 0 -3560z m600 -10 c0 -5 -4 -10 -10 -10 -5 0 -10 5 -10 10 0 6 5 10 10
10 6 0 10 -4 10 -10z"/>
<path d="M5930 11775 l0 -535 165 0 165 0 0 215 0 215 180 0 180 0 0 -215 0
-215 170 0 170 0 0 535 0 535 -170 0 -170 0 0 -185 0 -185 -180 0 -180 0 0
185 0 185 -165 0 -165 0 0 -535z"/>
<path d="M7170 11775 l0 -535 455 0 455 0 0 120 0 120 -285 0 -285 0 0 105 0
105 255 0 255 0 0 110 0 110 -255 0 -255 0 0 85 0 85 275 0 275 0 0 115 0 115
-445 0 -445 0 0 -535z"/>
<path d="M8160 12305 c0 -3 92 -144 205 -312 l205 -307 0 -223 0 -223 165 0
165 0 0 223 0 223 209 312 209 312 -183 0 -183 0 -107 -180 -108 -180 -106
177 -107 178 -182 3 c-100 1 -182 0 -182 -3z"/>
<path d="M5437 10023 c-4 -3 -7 -246 -7 -540 l0 -533 268 0 c363 1 467 22 570
114 96 87 141 199 149 376 16 344 -126 549 -402 580 -100 11 -568 14 -578 3z
m534 -264 c66 -29 95 -78 110 -185 14 -103 4 -215 -26 -282 -33 -72 -75 -91
-202 -92 l-93 0 0 290 0 290 81 0 c60 0 93 -5 130 -21z"/>
<path d="M6597 10023 c-4 -3 -7 -246 -7 -540 l0 -533 455 0 456 0 -3 123 -3
122 -282 3 -283 2 0 105 0 105 255 0 255 0 0 110 0 110 -255 0 -255 0 0 85 0
85 275 0 275 0 0 115 0 115 -438 0 c-241 0 -442 -3 -445 -7z"/>
<path d="M7687 10023 c-4 -3 -7 -246 -7 -540 l0 -533 168 2 167 3 3 218 c3
244 -1 234 79 202 47 -19 52 -27 146 -200 41 -77 86 -159 99 -182 l23 -43 188
0 188 0 -90 172 c-98 188 -149 257 -210 284 l-40 17 56 23 c121 50 184 135
191 263 6 104 -21 173 -88 234 -56 50 -100 66 -224 78 -106 10 -640 12 -649 2z
m554 -223 c51 -14 74 -43 74 -95 0 -82 -63 -115 -220 -115 l-75 0 0 110 0 110
93 0 c50 0 108 -5 128 -10z"/>
<path d="M8847 10023 c-4 -3 -7 -246 -7 -540 l0 -533 455 0 455 0 0 119 c0 99
-3 120 -16 125 -9 3 -137 6 -285 6 l-269 0 0 105 0 105 255 0 255 0 0 110 0
110 -255 0 -255 0 0 85 0 85 275 0 275 0 0 115 0 115 -438 0 c-241 0 -442 -3
-445 -7z"/>
<path d="M5630 7216 l0 -536 333 0 c429 1 494 11 576 92 109 106 115 303 12
402 -15 15 -54 38 -86 51 l-58 23 39 20 c186 96 169 364 -29 453 -51 24 -58
24 -419 27 l-368 3 0 -535z m596 281 c16 -19 24 -40 24 -67 0 -27 -8 -48 -24
-67 -24 -27 -27 -28 -140 -31 l-116 -4 0 102 0 102 116 -4 c113 -3 116 -4 140
-31z m14 -392 c37 -19 50 -43 50 -90 0 -84 -41 -105 -205 -105 l-115 0 0 105
0 105 120 0 c88 0 129 -4 150 -15z"/>
<path d="M6800 7408 c0 -364 7 -434 50 -523 47 -97 138 -172 242 -202 75 -20
311 -29 390 -14 159 31 265 120 321 269 20 54 21 78 25 435 l3 377 -165 0
-165 0 -3 -362 c-3 -345 -4 -365 -24 -398 -62 -107 -250 -108 -315 -3 -24 38
-24 40 -27 401 l-3 362 -164 0 -165 0 0 -342z"/>
<path d="M8050 7215 l0 -535 333 0 c447 1 506 12 591 112 50 58 70 124 64 213
-8 115 -59 184 -166 225 l-44 17 46 27 c84 49 121 124 114 231 -7 115 -81 199
-203 230 -47 12 -127 15 -397 15 l-338 0 0 -535z m565 303 c29 -13 55 -55 55
-88 0 -37 -28 -77 -61 -89 -18 -6 -74 -11 -125 -11 l-94 0 0 100 0 100 100 0
c55 0 111 -5 125 -12z m40 -410 c59 -27 72 -109 26 -160 l-29 -33 -131 -3
-131 -4 0 106 0 106 120 0 c71 0 130 -5 145 -12z"/>
<path d="M9200 7619 c0 -110 29 -412 56 -577 l5 -33 97 3 97 3 32 245 c19 150
32 292 32 368 l1 122 -160 0 -160 0 0 -131z"/>
<path d="M9210 6810 l0 -130 150 0 150 0 0 130 0 130 -150 0 -150 0 0 -130z"/>
<path d="M1996 10859 c-20 -95 -64 -613 -96 -1129 -6 -91 -13 -193 -16 -227
l-6 -63 116 0 c104 0 116 2 116 18 -1 24 -16 188 -34 362 -8 80 -20 280 -25
445 -17 464 -37 680 -55 594z"/>
<path d="M3807 10628 c-3 -18 -9 -97 -13 -176 -4 -78 -10 -157 -14 -175 l-7
-32 -6 45 c-3 25 -12 105 -18 178 -6 73 -15 130 -20 125 -12 -12 -26 -222 -44
-648 -9 -203 -20 -399 -25 -434 -9 -61 -23 -86 -43 -74 -5 3 -7 -11 -3 -33 3
-22 8 -66 11 -99 8 -80 24 -137 36 -130 5 4 12 -1 15 -9 17 -45 38 9 50 129 4
39 8 81 9 95 2 14 3 31 4 38 1 8 21 12 66 12 61 0 65 1 65 23 0 30 -19 395
-25 477 -2 36 -9 211 -16 390 -6 179 -12 326 -14 328 -1 2 -5 -12 -8 -30z"/>
<path d="M4579 10605 c-8 -12 -15 -134 -29 -480 -15 -355 -21 -477 -27 -472
-2 3 -8 80 -12 171 -6 134 -11 170 -24 183 -9 9 -19 14 -23 10 -4 -3 -12 -50
-19 -104 -7 -54 -18 -114 -24 -133 -6 -19 -14 -88 -18 -152 -3 -65 -10 -115
-15 -112 -4 3 -8 20 -8 37 0 18 -9 59 -19 93 -14 45 -23 119 -31 280 -15 276
-22 349 -35 349 -5 0 -17 -19 -25 -43 -8 -25 -19 -41 -26 -38 -22 9 -41 -186
-51 -526 l-6 -228 55 0 56 0 6 -42 c3 -24 7 -71 7 -105 1 -35 6 -63 12 -63 5
0 7 18 5 40 -2 22 0 40 4 40 5 0 8 9 8 20 0 18 19 30 21 13 5 -55 15 -61 17
-10 2 58 7 96 15 104 4 3 7 4 7 1 0 -2 7 -49 15 -104 8 -54 20 -180 26 -279 5
-99 16 -224 24 -277 8 -54 15 -101 15 -105 0 -4 5 -2 10 3 6 6 13 51 16 100 2
49 17 218 31 377 l27 287 59 0 c59 0 59 0 53 28 -25 126 -39 300 -79 957 -7
105 -15 186 -18 180z"/>
<path d="M12775 10223 c-15 -184 -36 -336 -50 -356 -8 -12 -15 -36 -15 -53 0
-45 -10 -70 -21 -52 -5 8 -9 -11 -9 -48 0 -33 -3 -109 -7 -167 l-6 -107 120 0
120 0 7 -102 c4 -57 14 -179 22 -273 21 -241 36 -287 69 -209 12 28 19 34 34
29 17 -5 23 2 37 52 l18 58 7 -43 c16 -86 35 -80 44 16 4 37 10 78 15 92 7 21
9 17 10 -25 1 -27 5 -61 9 -75 7 -22 9 -20 14 20 8 54 27 309 30 397 1 43 6
63 15 63 6 0 12 -11 12 -25 0 -14 6 -36 14 -48 8 -12 16 -51 19 -87 14 -170
50 -487 57 -500 6 -10 10 -3 15 25 12 70 15 77 30 65 15 -13 21 40 30 285 3
83 8 180 11 218 l7 67 -70 0 -70 0 -2 63 c-4 146 -43 532 -54 544 -7 6 -26
-188 -44 -427 -3 -52 -7 -106 -8 -120 -2 -14 -3 -33 -4 -43 -1 -16 -12 -17
-128 -15 l-127 3 -12 50 c-7 28 -19 145 -28 260 -9 116 -23 239 -31 275 -8 36
-24 111 -36 168 -12 56 -25 102 -30 102 -4 0 -10 -35 -14 -77z"/>
<path d="M1507 10255 c-6 -29 -22 -240 -31 -411 -2 -49 -11 -97 -22 -120 -23
-51 -22 -50 -38 -29 -12 16 -13 15 -19 -21 -3 -21 -9 -83 -13 -136 -5 -80 -4
-98 7 -99 14 -1 37 -1 168 0 l74 1 -7 83 c-3 45 -8 141 -11 212 -3 72 -8 150
-12 175 -10 79 -23 13 -30 -154 -8 -184 -21 -242 -23 -101 -2 223 -19 582 -28
605 l-9 25 -6 -30z"/>
<path d="M3046 10158 c-3 -35 -8 -110 -11 -168 -16 -335 -27 -360 -56 -120 -6
52 -13 97 -15 99 -7 8 -17 -51 -48 -284 -8 -60 -14 -82 -18 -65 -11 43 -28
184 -28 223 0 43 -17 50 -26 10 -3 -16 -10 -41 -14 -58 -7 -30 -7 -30 -13 -5
-3 14 -9 70 -14 124 -5 65 -12 101 -20 104 -7 2 -13 -2 -13 -10 0 -7 -7 -22
-15 -32 -15 -19 -15 -19 -29 -1 -13 18 -14 18 -19 -1 -8 -26 -25 -227 -33
-396 l-6 -137 -171 0 c-99 0 -172 -4 -176 -9 -9 -15 11 -292 21 -292 4 0 8 13
8 29 0 17 4 32 9 35 9 6 13 -45 31 -435 5 -119 13 -224 16 -234 13 -33 24 21
35 165 23 320 27 361 37 373 5 6 13 46 16 87 4 41 9 93 13 114 l5 40 16 -30
c11 -20 18 -75 23 -179 18 -368 22 -423 31 -470 6 -27 12 -80 15 -117 3 -38 8
-68 13 -68 9 0 17 90 30 380 6 124 18 305 26 403 8 99 14 185 14 193 0 11 18
14 80 14 l79 0 6 -37 c11 -66 18 -70 27 -15 8 41 13 52 29 52 16 0 19 -7 19
-52 0 -80 21 -322 29 -331 4 -4 18 81 31 189 l23 196 65 -4 65 -3 -8 150 c-3
83 -9 152 -11 155 -3 2 -9 -2 -14 -9 -10 -17 -15 28 -30 289 -7 107 -13 196
-15 198 -2 2 -6 -25 -9 -60z"/>
<path d="M287 10133 c-3 -5 -15 -94 -26 -198 -12 -105 -26 -214 -31 -244 -6
-30 -10 -99 -10 -152 l0 -98 78 -3 c55 -2 76 -7 74 -15 -1 -7 1 -12 5 -11 5 0
15 -2 24 -6 9 -4 36 -6 60 -3 44 3 43 4 -8 5 -30 1 -53 7 -53 13 0 5 5 7 11 3
7 -4 9 0 6 12 -3 11 -9 44 -12 74 -29 238 -88 589 -104 618 -5 8 -11 10 -14 5z"/>
<path d="M1766 9708 c-3 -35 -7 -109 -10 -165 l-4 -101 30 -4 31 -5 -6 56 c-3
31 -9 105 -13 164 -4 59 -10 110 -15 112 -4 3 -10 -23 -13 -57z"/>
<path d="M3286 9618 c-3 -18 -10 -63 -16 -99 -14 -88 -15 -84 26 -84 l35 -1
-6 56 c-14 137 -18 160 -26 160 -4 0 -10 -15 -13 -32z"/>
<path d="M986 9610 c-4 -19 -8 -65 -9 -102 l-2 -68 -93 0 -93 0 7 -87 c4 -49
13 -110 21 -138 24 -89 57 -341 69 -535 6 -105 17 -152 28 -120 2 8 14 110 26
225 29 288 32 294 69 160 13 -46 27 -82 32 -80 4 3 10 49 13 103 11 158 15
204 31 308 8 54 15 114 15 132 0 31 -2 32 -39 32 -35 0 -39 3 -45 31 -3 17 -6
52 -7 78 -1 25 -4 57 -9 71 -7 24 -7 24 -14 -10z"/>
<path d="M542 9558 c-5 -7 -15 -39 -21 -70 -7 -31 -18 -59 -24 -61 -7 -2 -1
-2 13 1 27 5 47 5 70 0 12 -2 15 8 13 55 -3 74 -25 106 -51 75z"/>
<path d="M11695 9470 c-6 -29 -9 -30 -61 -30 l-54 0 1 -197 c0 -207 8 -300 26
-311 14 -9 22 -88 33 -336 10 -227 24 -283 34 -139 4 48 13 180 21 293 18 240
25 301 35 295 4 -2 10 -32 14 -65 4 -33 11 -60 16 -60 6 0 10 5 10 12 0 6 2 9
5 7 3 -4 35 -235 35 -256 0 -2 4 -3 9 -3 4 0 14 51 21 113 6 61 22 184 35 272
13 88 25 207 26 265 l2 105 -85 3 -86 3 -6 29 c-7 39 -23 38 -31 0z"/>
<path d="M3498 9443 c7 -3 16 -2 19 1 4 3 -2 6 -13 5 -11 0 -14 -3 -6 -6z"/>
<path d="M13845 9440 l-160 -5 3 -30 c6 -67 45 -293 57 -335 7 -25 23 -67 36
-95 21 -48 22 -49 31 -25 5 14 14 70 19 124 10 105 22 145 32 110 10 -32 27
-173 27 -220 0 -32 6 -49 20 -61 17 -15 20 -31 21 -118 1 -55 4 -125 8 -155 6
-49 8 -40 15 75 15 264 58 577 82 606 8 8 14 21 14 27 0 7 4 12 9 12 10 0 21
-49 21 -96 0 -46 18 -52 26 -9 12 67 23 20 29 -125 7 -185 15 -270 24 -270 4
0 14 117 23 261 9 143 18 263 22 266 3 3 12 0 21 -7 12 -10 16 -9 21 3 3 9 4
26 2 39 -3 22 -7 23 -123 28 -66 3 -192 3 -280 0z"/>
<path d="M10900 9430 c0 -6 7 -10 15 -10 8 0 15 2 15 4 0 2 -7 6 -15 10 -8 3
-15 1 -15 -4z"/>
<path d="M11087 9433 c-3 -5 9 -9 26 -10 24 -2 28 0 17 7 -18 12 -37 13 -43 3z"/>
<path d="M12027 9434 c-6 -6 -4 -33 8 -149 1 -16 3 -40 4 -52 0 -13 5 -23 10
-23 4 0 11 34 14 75 4 41 10 93 13 115 6 38 5 40 -18 40 -14 0 -28 -3 -31 -6z"/>
<path d="M14307 9433 c-9 -8 -7 -90 2 -123 10 -35 17 -16 26 63 5 54 4 67 -8
67 -7 0 -17 -3 -20 -7z"/>
<path d="M14418 9435 c-3 -3 -1 -26 3 -53 4 -26 8 -75 8 -109 1 -57 41 -216
60 -236 4 -4 15 42 24 103 10 61 24 125 32 141 9 16 19 59 22 94 l6 65 -75 0
c-41 0 -77 -2 -80 -5z"/>
<path d="M14865 9430 c3 -5 11 -10 16 -10 6 0 7 5 4 10 -3 6 -11 10 -16 10 -6
0 -7 -4 -4 -10z"/>
<path d="M578 9403 c12 -2 32 -2 45 0 12 2 2 4 -23 4 -25 0 -35 -2 -22 -4z"/>
<path d="M10818 9403 c12 -2 32 -2 45 0 12 2 2 4 -23 4 -25 0 -35 -2 -22 -4z"/>
<path d="M10918 9403 c12 -2 32 -2 45 0 12 2 2 4 -23 4 -25 0 -35 -2 -22 -4z"/>
<path d="M11043 9403 c9 -2 23 -2 30 0 6 3 -1 5 -18 5 -16 0 -22 -2 -12 -5z"/>
<path d="M11132 9390 c0 -14 2 -19 5 -12 2 6 2 18 0 25 -3 6 -5 1 -5 -13z"/>
<path d="M14663 9403 c9 -2 25 -2 35 0 9 3 1 5 -18 5 -19 0 -27 -2 -17 -5z"/>
<path d="M14758 9403 c23 -2 61 -2 85 0 23 2 4 4 -43 4 -47 0 -66 -2 -42 -4z"/>
<path d="M383 9371 c1 -21 8 -36 17 -39 12 -4 13 -2 3 9 -6 8 -13 25 -16 39
-4 17 -5 15 -4 -9z"/>
<path d="M642 9365 c0 -16 2 -22 5 -12 2 9 2 23 0 30 -3 6 -5 -1 -5 -18z"/>
<path d="M11105 9370 c-3 -5 -1 -10 4 -10 6 0 11 5 11 10 0 6 -2 10 -4 10 -3
0 -8 -4 -11 -10z"/>
<path d="M487 9328 c-6 -4 5 -6 25 -5 20 2 39 5 42 8 8 7 -54 5 -67 -3z"/>
<path d="M14883 9300 c0 -25 2 -35 4 -22 2 12 2 32 0 45 -2 12 -4 2 -4 -23z"/>
<path d="M390 9310 c0 -5 4 -10 9 -10 6 0 13 5 16 10 3 6 -1 10 -9 10 -9 0
-16 -4 -16 -10z"/>
<path d="M652 9300 c0 -14 2 -19 5 -12 2 6 2 18 0 25 -3 6 -5 1 -5 -13z"/>
<path d="M485 9299 c-11 -17 -2 -18 19 -3 17 12 17 14 4 14 -9 0 -20 -5 -23
-11z"/>
<path d="M14635 9299 c-4 -6 -4 -13 -1 -16 3 -4 6 0 7 8 0 8 4 4 10 -9 5 -13
6 -35 3 -49 -5 -18 -3 -24 5 -19 19 12 11 96 -9 96 -5 0 -12 -5 -15 -11z"/>
<path d="M10931 9288 c0 -7 4 -22 9 -33 8 -18 9 -18 10 5 l2 25 8 -25 c5 -15
8 -18 9 -8 2 26 -10 48 -25 48 -8 0 -14 -6 -13 -12z"/>
<path d="M11121 9284 c0 -11 3 -14 6 -6 3 7 2 16 -1 19 -3 4 -6 -2 -5 -13z"/>
<path d="M400 9279 c14 -5 33 -20 42 -32 19 -24 24 -42 9 -33 -10 6 -25 -24
-16 -32 3 -3 5 1 6 9 0 8 4 6 9 -6 7 -19 8 -18 15 7 4 18 1 35 -11 55 -23 35
-34 43 -59 42 -17 0 -16 -2 5 -10z"/>
<path d="M10986 9265 c-3 -9 -6 -24 -5 -33 0 -9 5 -4 10 12 9 32 6 48 -5 21z"/>
<path d="M475 9259 c-4 -6 -4 -13 -1 -16 3 -4 6 -1 6 6 0 7 5 9 12 5 7 -4 8
-3 4 4 -9 15 -13 15 -21 1z"/>
<path d="M10760 9259 c-13 -9 -13 -10 1 -6 9 3 23 0 30 -6 11 -10 11 -9 0 6
-7 9 -14 17 -15 17 0 0 -8 -5 -16 -11z"/>
<path d="M14746 9238 c-8 -32 -7 -40 3 -34 11 7 21 56 11 56 -4 0 -10 -10 -14
-22z"/>
<path d="M618 9217 c7 -8 7 -18 2 -27 -6 -8 -10 -19 -10 -25 1 -5 5 -2 11 8 6
9 14 15 20 12 13 -9 11 19 -3 33 -16 16 -33 15 -20 -1z"/>
<path d="M14711 9214 c0 -11 3 -14 6 -6 3 7 2 16 -1 19 -3 4 -6 -2 -5 -13z"/>
<path d="M10912 9200 c0 -14 2 -19 5 -12 2 6 2 18 0 25 -3 6 -5 1 -5 -13z"/>
<path d="M11002 9200 c0 -14 2 -19 5 -12 2 6 2 18 0 25 -3 6 -5 1 -5 -13z"/>
<path d="M10970 9196 c0 -8 4 -17 9 -20 5 -4 7 3 4 14 -6 23 -13 26 -13 6z"/>
<path d="M10817 9193 c-3 -5 -2 -15 2 -22 5 -7 11 -9 14 -4 3 5 2 15 -2 22 -5
7 -11 9 -14 4z"/>
<path d="M14704 9176 c-3 -8 -4 -25 -1 -38 3 -18 5 -16 6 9 0 17 7 34 14 36 9
4 9 6 -1 6 -7 1 -15 -5 -18 -13z"/>
<path d="M14883 9135 c0 -27 2 -38 4 -22 2 15 2 37 0 50 -2 12 -4 0 -4 -28z"/>
<path d="M10920 9160 c0 -5 5 -10 10 -10 6 0 10 5 10 10 0 6 -4 10 -10 10 -5
0 -10 -4 -10 -10z"/>
<path d="M11082 9120 c0 -19 2 -27 5 -17 2 9 2 25 0 35 -3 9 -5 1 -5 -18z"/>
<path d="M14731 9134 c0 -11 3 -14 6 -6 3 7 2 16 -1 19 -3 4 -6 -2 -5 -13z"/>
<path d="M10831 9124 c0 -11 3 -14 6 -6 3 7 2 16 -1 19 -3 4 -6 -2 -5 -13z"/>
<path d="M10913 9105 c0 -22 2 -30 4 -17 2 12 2 30 0 40 -3 9 -5 -1 -4 -23z"/>
<path d="M10981 9124 c0 -11 3 -14 6 -6 3 7 2 16 -1 19 -3 4 -6 -2 -5 -13z"/>
<path d="M11112 9120 c0 -14 2 -19 5 -12 2 6 2 18 0 25 -3 6 -5 1 -5 -13z"/>
<path d="M14785 9129 c-9 -14 -2 -20 14 -10 8 6 9 11 3 15 -6 3 -14 1 -17 -5z"/>
<path d="M11005 9090 c3 -5 8 -10 11 -10 2 0 4 5 4 10 0 6 -5 10 -11 10 -5 0
-7 -4 -4 -10z"/>
<path d="M11056 9083 c-6 -14 -5 -15 5 -6 7 7 10 15 7 18 -3 3 -9 -2 -12 -12z"/>
<path d="M14663 9059 c0 -26 3 -36 8 -27 11 17 11 55 0 62 -4 3 -8 -13 -8 -35z"/>
<path d="M14696 9087 c3 -10 9 -15 12 -12 3 3 0 11 -7 18 -10 9 -11 8 -5 -6z"/>
<path d="M14820 9080 c0 -5 5 -10 11 -10 5 0 7 5 4 10 -3 6 -8 10 -11 10 -2 0
-4 -4 -4 -10z"/>
<path d="M10991 9064 c0 -11 3 -14 6 -6 3 7 2 16 -1 19 -3 4 -6 -2 -5 -13z"/>
<path d="M11071 9056 c-8 -13 -11 -30 -8 -38 3 -8 6 -5 6 8 1 11 6 25 13 32 6
6 9 14 7 17 -3 3 -11 -6 -18 -19z"/>
<path d="M14851 9055 c-2 -16 -5 -24 -8 -17 -2 6 -10 12 -16 12 -7 -1 2 -12
18 -26 17 -14 26 -24 20 -23 -22 3 -35 -2 -35 -13 0 -9 3 -9 11 -1 6 6 17 9
24 7 8 -3 13 4 13 21 0 18 -3 23 -8 14 -6 -8 -10 -1 -13 22 -4 33 -4 33 -6 4z"/>
<path d="M10899 9038 c-4 -53 3 -174 9 -180 4 -4 7 19 7 52 0 32 -3 56 -7 54
-4 -3 -4 18 -1 46 3 27 3 50 -1 50 -3 0 -7 -10 -7 -22z"/>
<path d="M14715 9047 c-4 -10 -5 -21 -1 -24 10 -10 18 4 13 24 -4 17 -4 17
-12 0z"/>
<path d="M14686 9032 c-2 -4 -1 -14 5 -22 7 -12 9 -10 9 8 0 23 -5 28 -14 14z"/>
<path d="M10860 9020 c0 -8 5 -22 10 -30 9 -13 10 -13 10 0 0 8 -5 22 -10 30
-9 13 -10 13 -10 0z"/>
<path d="M11026 8980 c4 -25 11 -46 16 -48 4 -2 8 -8 8 -13 0 -6 -4 -7 -10 -4
-5 3 -10 2 -10 -2 0 -5 8 -13 18 -19 16 -10 17 -6 13 45 -4 48 -5 52 -12 26
l-7 -30 -1 30 c-1 17 -6 37 -11 45 -7 10 -8 1 -4 -30z"/>
<path d="M14670 8993 c0 -13 5 -23 10 -23 13 0 13 11 0 30 -8 12 -10 11 -10
-7z"/>
<path d="M10822 8975 c0 -16 2 -22 5 -12 2 9 2 23 0 30 -3 6 -5 -1 -5 -18z"/>
<path d="M14651 8984 c0 -11 3 -14 6 -6 3 7 2 16 -1 19 -3 4 -6 -2 -5 -13z"/>
<path d="M11072 8960 c0 -14 2 -19 5 -12 2 6 2 18 0 25 -3 6 -5 1 -5 -13z"/>
<path d="M14711 8934 c0 -11 3 -14 6 -6 3 7 2 16 -1 19 -3 4 -6 -2 -5 -13z"/>
<path d="M14683 8803 c1 -45 5 -76 9 -69 4 6 3 43 -2 81 l-8 70 1 -82z"/>
<path d="M11055 8849 c-4 -6 -5 -12 -2 -15 2 -3 7 2 10 11 7 17 1 20 -8 4z"/>
<path d="M10881 8834 c0 -11 3 -14 6 -6 3 7 2 16 -1 19 -3 4 -6 -2 -5 -13z"/>
<path d="M10892 8680 c0 -14 2 -19 5 -12 2 6 2 18 0 25 -3 6 -5 1 -5 -13z"/>
<path d="M5816 5034 c-108 -17 -212 -44 -316 -85 -91 -35 -123 -57 -140 -99
-11 -27 -9 -36 14 -85 59 -125 70 -184 71 -391 l1 -191 36 -43 36 -44 47 94
c72 144 172 374 210 481 l33 96 -58 58 c-31 31 -60 53 -63 48 -2 -4 -19 -60
-37 -123 -38 -136 -136 -435 -150 -458 -6 -12 -9 20 -10 101 0 65 -5 151 -11
190 -10 66 -42 206 -54 240 -4 10 12 20 62 35 130 41 180 47 415 47 l226 -1
-21 31 c-11 16 -36 49 -55 73 -33 41 -36 42 -91 41 -31 -1 -96 -7 -145 -15z"/>
<path d="M6244 5001 c-113 -69 -355 -561 -358 -730 -1 -55 -1 -55 42 -79 40
-22 42 -22 48 -5 22 63 83 170 130 228 31 36 57 65 60 63 2 -2 -10 -39 -26
-81 -17 -42 -33 -97 -36 -120 -6 -39 -3 -46 21 -65 15 -12 40 -22 54 -22 26 0
112 47 125 69 4 6 27 -11 56 -41 49 -50 49 -51 97 -44 66 8 177 65 242 123 44
40 51 50 40 60 -11 9 -27 1 -74 -38 -69 -56 -127 -82 -176 -77 -25 2 -35 8
-37 23 -2 16 13 28 73 59 89 45 145 94 145 126 0 12 -15 37 -34 56 -42 42 -79
44 -151 10 -62 -29 -107 -75 -143 -146 -20 -40 -40 -62 -75 -84 -26 -16 -49
-27 -52 -24 -3 2 11 53 31 111 39 118 39 124 -18 153 -36 19 -55 13 -118 -37
-27 -22 -50 -35 -50 -29 0 5 28 42 63 81 154 175 247 320 247 384 0 32 -23 61
-67 84 -27 14 -22 14 -59 -8z m60 -78 c-12 -51 -112 -219 -166 -278 -24 -26
81 192 128 267 28 45 47 50 38 11z m266 -463 c0 -21 -51 -85 -82 -101 -18 -10
-18 -9 -3 28 30 72 85 119 85 73z"/>
<path d="M8325 4981 c-41 -24 -107 -98 -151 -167 -42 -66 -134 -252 -134 -273
0 -9 -8 -11 -25 -7 -50 13 -157 -53 -219 -133 -32 -43 -86 -81 -114 -81 -5 0
-3 19 6 43 15 43 15 44 -12 80 -16 20 -32 37 -37 37 -18 0 -69 -94 -69 -126 0
-41 -63 -115 -82 -96 -26 26 43 168 106 217 l31 24 -22 22 c-20 21 -25 21 -63
10 -59 -18 -119 -75 -152 -148 -23 -52 -37 -69 -88 -103 -33 -22 -60 -37 -60
-32 0 5 6 15 14 21 17 14 62 116 70 158 4 27 0 39 -25 68 -18 20 -40 35 -54
35 -26 0 -92 -46 -125 -86 -22 -28 -22 -28 -15 -4 4 14 10 30 12 36 6 15 -63
68 -80 61 -7 -2 -21 -30 -30 -61 -10 -31 -67 -187 -127 -348 -60 -160 -108
-293 -106 -296 3 -2 33 3 68 10 l63 14 56 160 c30 87 63 176 72 196 38 89 163
258 190 258 21 0 -48 -152 -93 -204 l-33 -37 22 -22 c38 -38 95 -30 179 25 70
47 70 47 76 23 3 -13 22 -36 41 -51 45 -34 88 -28 164 24 30 20 76 42 103 48
l48 11 0 -33 c0 -44 32 -78 63 -68 25 8 106 60 155 100 l32 27 0 -30 c0 -32
29 -76 61 -94 27 -14 78 3 134 46 40 31 44 32 50 15 10 -32 73 -80 104 -80 46
0 152 37 201 70 l45 30 3 -24 c2 -13 14 -34 28 -47 l24 -23 44 21 c24 12 68
41 98 66 l55 45 -5 -48 c-4 -41 -1 -49 19 -64 13 -9 33 -16 44 -16 33 0 106
51 215 150 l100 91 0 -64 c0 -77 -20 -104 -69 -94 -44 9 -50 -11 -13 -44 63
-56 118 -51 220 21 39 28 69 44 66 36 -8 -22 12 -52 52 -77 l36 -22 42 21 c22
11 74 48 114 82 66 56 72 64 59 78 -14 13 -21 10 -69 -30 -29 -25 -63 -51 -75
-57 -21 -11 -23 -9 -23 14 0 27 50 191 80 261 l19 44 59 0 c44 0 63 5 75 18
29 32 20 38 -48 34 -36 -2 -65 -1 -65 2 0 3 20 50 45 103 25 53 43 98 41 101
-8 8 -104 -29 -132 -51 -15 -11 -40 -50 -57 -86 -32 -73 -40 -81 -77 -81 -25
0 -50 -16 -50 -32 0 -4 16 -8 35 -8 19 0 35 -4 35 -8 0 -5 -17 -57 -39 -117
-36 -103 -42 -111 -92 -152 -30 -24 -56 -43 -59 -43 -3 0 -5 57 -5 126 l0 126
-39 31 c-37 30 -39 30 -52 12 -8 -11 -19 -36 -24 -57 -12 -44 -85 -127 -175
-198 -34 -27 -66 -50 -69 -50 -11 0 -6 51 9 88 17 39 14 65 -9 95 -13 17 -18
15 -73 -40 -65 -64 -140 -119 -150 -110 -20 20 79 140 156 189 17 11 31 22 31
24 0 2 -14 11 -31 19 -30 16 -33 15 -87 -11 -37 -18 -89 -59 -149 -120 -104
-103 -188 -154 -256 -154 l-40 0 6 43 c8 56 37 124 71 165 49 57 65 29 21 -35
-13 -20 -23 -39 -20 -41 11 -11 74 11 104 36 33 28 34 28 18 59 -26 48 -66 76
-104 70 -82 -14 -161 -78 -201 -165 -18 -40 -36 -61 -70 -83 -65 -41 -75 -39
-67 14 23 154 24 156 98 236 139 153 247 319 247 381 0 19 -10 36 -31 54 -36
31 -54 32 -94 7z m55 -65 c0 -38 -172 -317 -187 -302 -8 8 111 247 141 284 29
34 46 41 46 18z m-376 -481 c-17 -59 -17 -59 -76 -105 -57 -45 -68 -49 -68
-19 0 18 135 169 152 169 3 0 0 -20 -8 -45z"/>
</g>
</svg>
